<svg width="100" height="100" viewBox="0 0 100 100" fill="none" xmlns="http://www.w3.org/2000/svg">
<path d="M50 0L93.3013 25V75L50 100L6.69873 75V25L50 0Z" fill="#D9D9D9"/>
<g filter="url(#filter0_d_21_20)">
<rect x="51.0391" y="36.9805" width="5.23298" height="33.0018" fill="black"/>
<rect x="51.1826" y="36.9805" width="12.043" height="5.51537" fill="black"/>
<rect x="51.1826" y="46.2029" width="12.043" height="5.51537" fill="black"/>
<rect width="5.23298" height="33.0018" transform="matrix(-1 0 0 1 48.9609 36.9805)" fill="black"/>
<rect width="12.043" height="5.51537" transform="matrix(-1 0 0 1 48.8174 36.9805)" fill="black"/>
<rect width="12.043" height="5.51537" transform="matrix(-1 0 0 1 48.8174 46.2029)" fill="black"/>
<rect x="28.8169" y="30.0178" width="6.37993" height="29.8372" rx="3.18996" fill="black"/>
<rect x="20.3584" y="34.6292" width="6.37993" height="20.6148" rx="3.18996" fill="black"/>
<rect x="73.262" y="34.6292" width="6.37993" height="20.6148" rx="3.18996" fill="black"/>
<rect x="64.8025" y="30.0178" width="6.37993" height="29.8372" rx="3.18996" fill="black"/>
</g>
<defs>
<filter id="filter0_d_21_20" x="16.3584" y="30.0178" width="67.2834" height="47.9644" filterUnits="userSpaceOnUse" color-interpolation-filters="sRGB">
<feFlood flood-opacity="0" result="BackgroundImageFix"/>
<feColorMatrix in="SourceAlpha" type="matrix" values="0 0 0 0 0 0 0 0 0 0 0 0 0 0 0 0 0 0 127 0" result="hardAlpha"/>
<feOffset dy="4"/>
<feGaussianBlur stdDeviation="2"/>
<feComposite in2="hardAlpha" operator="out"/>
<feColorMatrix type="matrix" values="0 0 0 0 0 0 0 0 0 0 0 0 0 0 0 0 0 0 0.25 0"/>
<feBlend mode="normal" in2="BackgroundImageFix" result="effect1_dropShadow_21_20"/>
<feBlend mode="normal" in="SourceGraphic" in2="effect1_dropShadow_21_20" result="shape"/>
</filter>
</defs>
</svg>
