<svg width="92" height="32" viewBox="0 0 92 32" fill="none" xmlns="http://www.w3.org/2000/svg">
<path d="M16.1758 0L30.1845 8V24L16.1758 32L2.16715 24V8L16.1758 0Z" fill="black"/>
<g filter="url(#filter0_d_21_38)">
<rect x="16.512" y="11.8337" width="1.69295" height="10.5606" fill="#D9D9D9"/>
<rect x="16.5583" y="11.8337" width="3.89611" height="1.76492" fill="#D9D9D9"/>
<rect x="16.5583" y="14.7849" width="3.89611" height="1.76492" fill="#D9D9D9"/>
<rect width="1.69295" height="10.5606" transform="matrix(-1 0 0 1 15.8396 11.8337)" fill="#D9D9D9"/>
<rect width="3.89611" height="1.76492" transform="matrix(-1 0 0 1 15.7932 11.8337)" fill="#D9D9D9"/>
<rect width="3.89611" height="1.76492" transform="matrix(-1 0 0 1 15.7932 14.7849)" fill="#D9D9D9"/>
<rect x="9.32275" y="9.60571" width="2.06401" height="9.54792" rx="1.03201" fill="#D9D9D9"/>
<rect x="6.58618" y="11.0813" width="2.06401" height="6.59675" rx="1.03201" fill="#D9D9D9"/>
<rect x="23.7012" y="11.0813" width="2.06401" height="6.59675" rx="1.03201" fill="#D9D9D9"/>
<rect x="20.9644" y="9.60571" width="2.06401" height="9.54792" rx="1.03201" fill="#D9D9D9"/>
</g>
<path d="M37.1155 13.45H43.2505V15.31H39.8155V17.005H42.6505V18.64H39.8155V22H37.1155V13.45ZM44.1771 13.45H46.8771V22H44.1771V13.45ZM52.8805 22H50.1805V15.325H47.7655V13.45H55.2955V15.325H52.8805V22ZM58.385 13.45H64.52V15.31H61.085V17.005H63.92V18.64H61.085V22H58.385V13.45ZM65.4016 13.45H68.1016V20.02H71.5966V22H65.4016V13.45ZM72.4904 13.45H78.7154V15.25H75.1904V16.81H78.1604V18.43H75.1904V20.17H78.7004V22H72.4904V13.45ZM81.2554 17.62L79.2454 13.45H82.0054L83.3854 16.81L84.8104 13.45H87.4954L85.5154 17.62L87.6304 22.015H84.8704L83.3854 18.385L81.8554 22.015H79.0804L81.2554 17.62Z" fill="black"/>
<defs>
<filter id="filter0_d_21_38" x="2.58618" y="9.60571" width="27.179" height="20.7886" filterUnits="userSpaceOnUse" color-interpolation-filters="sRGB">
<feFlood flood-opacity="0" result="BackgroundImageFix"/>
<feColorMatrix in="SourceAlpha" type="matrix" values="0 0 0 0 0 0 0 0 0 0 0 0 0 0 0 0 0 0 127 0" result="hardAlpha"/>
<feOffset dy="4"/>
<feGaussianBlur stdDeviation="2"/>
<feComposite in2="hardAlpha" operator="out"/>
<feColorMatrix type="matrix" values="0 0 0 0 0 0 0 0 0 0 0 0 0 0 0 0 0 0 0.25 0"/>
<feBlend mode="normal" in2="BackgroundImageFix" result="effect1_dropShadow_21_38"/>
<feBlend mode="normal" in="SourceGraphic" in2="effect1_dropShadow_21_38" result="shape"/>
</filter>
</defs>
</svg>
