<svg width="32" height="32" viewBox="0 0 32 32" fill="none" xmlns="http://www.w3.org/2000/svg">
<path d="M16 0L29.8564 8V24L16 32L2.14359 24V8L16 0Z" fill="black"/>
<g filter="url(#filter0_d_21_20)">
<rect x="16.3325" y="11.8337" width="1.67455" height="10.5606" fill="#D9D9D9"/>
<rect x="16.3784" y="11.8337" width="3.85376" height="1.76492" fill="#D9D9D9"/>
<rect x="16.3784" y="14.7849" width="3.85376" height="1.76492" fill="#D9D9D9"/>
<rect width="1.67455" height="10.5606" transform="matrix(-1 0 0 1 15.6675 11.8337)" fill="#D9D9D9"/>
<rect width="3.85376" height="1.76492" transform="matrix(-1 0 0 1 15.6216 11.8337)" fill="#D9D9D9"/>
<rect width="3.85376" height="1.76492" transform="matrix(-1 0 0 1 15.6216 14.7849)" fill="#D9D9D9"/>
<rect x="9.22144" y="9.60571" width="2.04158" height="9.54792" rx="1.02079" fill="#D9D9D9"/>
<rect x="6.51465" y="11.0813" width="2.04158" height="6.59675" rx="1.02079" fill="#D9D9D9"/>
<rect x="23.4438" y="11.0813" width="2.04158" height="6.59675" rx="1.02079" fill="#D9D9D9"/>
<rect x="20.7368" y="9.60571" width="2.04158" height="9.54792" rx="1.02079" fill="#D9D9D9"/>
</g>
<defs>
<filter id="filter0_d_21_20" x="2.51465" y="9.60571" width="26.9707" height="20.7886" filterUnits="userSpaceOnUse" color-interpolation-filters="sRGB">
<feFlood flood-opacity="0" result="BackgroundImageFix"/>
<feColorMatrix in="SourceAlpha" type="matrix" values="0 0 0 0 0 0 0 0 0 0 0 0 0 0 0 0 0 0 127 0" result="hardAlpha"/>
<feOffset dy="4"/>
<feGaussianBlur stdDeviation="2"/>
<feComposite in2="hardAlpha" operator="out"/>
<feColorMatrix type="matrix" values="0 0 0 0 0 0 0 0 0 0 0 0 0 0 0 0 0 0 0.25 0"/>
<feBlend mode="normal" in2="BackgroundImageFix" result="effect1_dropShadow_21_20"/>
<feBlend mode="normal" in="SourceGraphic" in2="effect1_dropShadow_21_20" result="shape"/>
</filter>
</defs>
</svg>
